<svg xmlns="http://www.w3.org/2000/svg" viewBox="0 0 512 512">
  <defs>
    <radialGradient id="bg" cx="50%" cy="40%" r="60%">
      <stop offset="0%" stop-color="#3a8260"/>
      <stop offset="100%" stop-color="#152d24"/>
    </radialGradient>
    <linearGradient id="petalGrad" x1="0%" y1="0%" x2="0%" y2="100%">
      <stop offset="0%" stop-color="#fff7c2"/>
      <stop offset="100%" stop-color="#bfd99b"/>
    </linearGradient>
    <radialGradient id="dropGrad" cx="40%" cy="35%" r="60%">
      <stop offset="0%" stop-color="#cfecff"/>
      <stop offset="80%" stop-color="#3b8fd0"/>
    </radialGradient>
  </defs>

  <rect width="512" height="512" rx="96" fill="url(#bg)"/>

  <g transform="translate(256 230)">
    <ellipse cx="0"   cy="-90" rx="46" ry="78" fill="url(#petalGrad)"/>
    <ellipse cx="-86" cy="-26" rx="46" ry="78" fill="url(#petalGrad)" transform="rotate(-72 -86 -26)"/>
    <ellipse cx="-54" cy="80"  rx="46" ry="78" fill="url(#petalGrad)" transform="rotate(-144 -54 80)"/>
    <ellipse cx="54"  cy="80"  rx="46" ry="78" fill="url(#petalGrad)" transform="rotate(144 54 80)"/>
    <ellipse cx="86"  cy="-26" rx="46" ry="78" fill="url(#petalGrad)" transform="rotate(72 86 -26)"/>
    <circle cx="0" cy="0" r="38" fill="#5e4a36"/>
    <circle cx="0" cy="0" r="22" fill="#3a2918"/>
  </g>

  <path d="M 256 360 C 230 360 210 380 210 410 C 210 440 232 460 256 460 C 280 460 302 440 302 410 C 302 380 282 360 256 360 Z"
        fill="url(#dropGrad)" stroke="#1f5a91" stroke-width="6"/>
  <ellipse cx="240" cy="395" rx="14" ry="22" fill="#ffffff" opacity="0.55" transform="rotate(-20 240 395)"/>
</svg>
